<?xml version="1.0" encoding="UTF-8"?>
<svg width="15px" height="15px" viewBox="0 0 15 15" version="1.1" xmlns="http://www.w3.org/2000/svg" xmlns:xlink="http://www.w3.org/1999/xlink">
    <!-- Generator: Sketch 50.2 (55047) - http://www.bohemiancoding.com/sketch -->
    <title>公共icon24*24 copy 2</title>
    <desc>Created with Sketch.</desc>
    <defs></defs>
    <g id="15-2发起合唱-copy" stroke="none" stroke-width="1" fill="none" fill-rule="evenodd">
        <g id="15-2发起合唱_优化" transform="translate(-12.000000, -652.000000)" fill="#7E7E7E" fill-rule="nonzero">
            <g id="Group-4" transform="translate(12.000000, 652.000000)">
                <path d="M13.2233756,8.10768832 C14.3381655,8.68124628 14.2528033,13 12.9672889,13 C12.7132077,13 12.4680036,12.9622322 12.2370518,12.8920381 C12.0061001,12.9622322 11.760896,13 11.5068148,13 C10.1298667,13 10.1298667,8.04504505 11.5068148,8.04504505 C11.6893885,8.04504505 11.8673787,8.06454587 12.038791,8.10156576 C11.9759827,4.75813743 10.4618986,3.18918919 7.48228148,3.18918919 C4.50030137,3.18918919 2.98617968,4.76062698 2.92562523,8.10952378 C3.1079443,8.0673458 3.29794392,8.04504505 3.49318518,8.04504505 C4.87013334,8.04504505 4.87013334,13 3.49318518,13 C3.23910403,13 2.99389994,12.9622322 2.76294815,12.8920381 C2.53199636,12.9622322 2.28679227,13 2.03271112,13 C0.761137427,13 0.663827011,8.77440763 1.74077987,8.12765918 C1.8195201,4.11558545 3.73842005,2 7.48228148,2 C11.2199261,2 13.138665,4.10856528 13.2233756,8.10768832 Z" id="Combined-Shape"></path>
            </g>
        </g>
    </g>
</svg>